<?xml version="1.0" encoding="UTF-8" standalone="no" ?>
<!DOCTYPE svg PUBLIC "-//W3C//DTD SVG 1.1//EN" "http://www.w3.org/Graphics/SVG/1.1/DTD/svg11.dtd">
<svg xmlns="http://www.w3.org/2000/svg" xmlns:xlink="http://www.w3.org/1999/xlink" version="1.1" width="640" height="640" viewBox="0 0 640 640" xml:space="preserve">
<desc>Created with Fabric.js 5.3.0</desc>
<defs>
</defs>
<g transform="matrix(1 0 0 1 304.5095720005 320.0944958649)" id="fVZbyuH4upC0opFjps_zP"  >
<path style="stroke: rgb(0,0,0); stroke-width: 0; stroke-dasharray: none; stroke-linecap: butt; stroke-dashoffset: 0; stroke-linejoin: miter; stroke-miterlimit: 4; fill: rgb(231,107,0); fill-rule: nonzero; opacity: 1;" vector-effect="non-scaling-stroke"  transform=" translate(0, 0)" d="M -242.72357 -97.44298 C -240.45084 -103.12480000000001 -249.54175 -105.39753 -230.22357 -123.57934 C -218.90485999999999 -134.23225 -55.97404 -194.76661000000001 -13.32571999999999 -209.19321000000002 C 16.81586000000001 -219.38917000000004 208.41279 -297.44298000000003 208.41279 -297.44298000000003 C 208.41279 -297.44298000000003 239.09461 -309.94298000000003 241.36734 -297.44298000000003 C 242.61863000000002 -290.56088000000005 244.16052000000002 -272.89753 241.36734 -256.20810000000006 C 241.05832 -254.36170000000007 236.22604 -226.85898000000006 228.71836000000002 -219.17954000000006 C 214.43227000000002 -204.56661000000005 99.54975000000002 -169.91690000000006 78.62085000000002 -158.33496000000005 C 29.394640000000017 -131.09342000000004 70.70581000000001 -158.39126000000005 69.77643000000002 -153.12480000000005 C 66.60067000000002 -135.12885000000006 50.89261000000002 105.72100999999992 42.117260000000016 233.24911999999995 C 41.19409000000002 246.66914999999995 41.70359000000001 261.26854 33.84911000000002 272.18900999999994 C 30.596790000000016 276.7108599999999 22.86006000000002 276.80763999999994 18.663320000000017 280.46987999999993 L 15.490440000000017 283.23882999999995 L -52.52379999999998 302.53894999999994 L -52.52379999999998 302.53894999999994 C -56.28720999999998 303.60687999999993 -60.33472999999998 302.78882999999996 -63.38800999999998 300.34317999999996 C -66.44128999999998 297.89752999999996 -68.12329999999999 294.12624999999997 -67.90280999999997 290.22047999999995 L -45.43032999999997 -107.85250000000002 L -225.31405999999998 -38.339950000000016 L -225.31405999999998 -38.339950000000016 C -229.25008999999997 -36.818950000000015 -233.68292 -37.33608000000002 -237.16314999999997 -39.72225000000002 C -240.64336999999998 -42.10842000000002 -242.72356999999997 -46.05687000000002 -242.72356999999997 -50.27656000000002 L -242.72356999999997 -97.44299000000001 L -242.72356999999997 -86.07935" stroke-linecap="round" />
</g>
<g transform="matrix(1 0 0 1 505.381977278 293.3780032576)" id="szb3NC2ar5vcn4PUUFh4F"  >
<path style="stroke: rgb(0,0,0); stroke-width: 0; stroke-dasharray: none; stroke-linecap: butt; stroke-dashoffset: 0; stroke-linejoin: miter; stroke-miterlimit: 4; fill: rgb(85,102,167); fill-rule: nonzero; opacity: 1;" vector-effect="non-scaling-stroke"  transform=" translate(0, 0)" d="M -57.51658 -17.69619 L -57.019639999999995 -17.8095 C -38.66762 -21.99399 -24.43237 -36.48176 -20.57118 -54.90451 L -5.458779999999999 -127.0097 L -5.458779999999999 -127.0097 C -4.851619999999999 -129.90663999999998 -2.261639999999999 -131.9563 0.6973000000000011 -131.88152 C 3.6562400000000013 -131.80673 6.139360000000001 -129.62885 6.5994100000000016 -126.70494 L 16.78262 -61.98331999999999 L 16.78262 -61.98331999999999 C 20.310940000000002 -39.55833999999999 37.42106 -21.697259999999993 59.67391 -17.20953999999999 L 82.05175 -12.696619999999989 L 82.05175 -12.696619999999989 C 86.05918 -11.888439999999989 88.97937 -8.422589999999989 89.09595 -4.336139999999988 C 89.21253 -0.24968999999998776 86.49468 3.377010000000012 82.53984 4.412330000000011 L 56.63198 11.194660000000011 L 56.63198 11.194660000000011 C 35.98061 16.600910000000013 20.470869999999998 33.69333000000001 17.09039 54.77126000000001 L 6.002799999999999 123.90437000000001 L 6.002799999999999 123.90437000000001 C 5.258829999999999 128.54316 1.2296899999999988 131.93740000000003 -3.468070000000001 131.88285000000002 C -8.16583 131.8283 -12.115060000000001 128.34140000000002 -12.751100000000001 123.68658000000002 L -22.24584 54.20059000000002 L -22.24584 54.20059000000002 C -25.081490000000002 33.44828000000002 -39.84513 16.298670000000023 -59.945080000000004 10.408740000000023 L -83.31374 3.560980000000023 L -83.31374 3.560980000000023 C -86.83534 2.529040000000023 -89.21318 -0.7541399999999774 -89.09536 -4.4219299999999775 C -88.97754 -8.089719999999978 -86.39389 -11.213519999999978 -82.81333 -12.017319999999977 L -57.51657999999999 -17.696179999999977" stroke-linecap="round" />
</g>
<g transform="matrix(0.8198933407 0 0 0.7434671726 266.4476437988 478.7932253169)" id="chXbz4yClUh6rjLzPihQg"  >
<path style="stroke: rgb(246,170,0); stroke-width: 1; stroke-dasharray: none; stroke-linecap: butt; stroke-dashoffset: 0; stroke-linejoin: miter; stroke-miterlimit: 4; fill: rgb(246,170,0); fill-rule: nonzero; opacity: 1;" vector-effect="non-scaling-stroke"  transform=" translate(0, 0)" d="M -139.46197 -86.70062 C -137.56346000000002 -83.82568 -135.40093000000002 -81.17452 -133.00875000000002 -78.7893 L -122.34370000000001 -68.15525 L -122.34370000000001 -68.15525 C -113.72453000000002 -59.561139999999995 -101.22666000000001 -57.62643 -90.79502000000001 -63.271429999999995 L -65.80261000000002 -76.79587 L -52.69994000000001 -88.1013 L -52.69994000000001 -88.1013 C -42.69634000000001 -96.73275 -28.561380000000014 -96.38806 -18.913530000000016 -87.2774 L -18.677680000000016 -87.05468 L -18.677680000000016 -87.05468 C -7.866880000000016 -76.84583 -5.585140000000017 -59.385040000000004 -13.342180000000017 -46.225280000000005 L -22.757430000000017 -30.252390000000005 L -22.757430000000017 -30.252390000000005 C -28.789130000000018 -20.019660000000005 -30.139310000000016 -7.266790000000004 -26.407440000000015 4.223089999999992 L -23.854420000000015 12.083469999999991 L -23.854420000000015 12.083469999999991 C -23.005900000000015 14.695939999999991 -21.474610000000016 16.97263999999999 -19.453820000000015 18.62621999999999 C -13.489410000000014 23.506809999999987 -12.816590000000016 24.24455999999999 0.21083999999998682 30.69799999999999 C 15.455939999999988 38.25001999999999 29.979979999999987 35.009849999999986 40.45964999999998 27.38673999999999 C 56.69730999999999 15.58186999999999 73.89986999999998 -18.116650000000014 92.56692999999999 -5.389110000000009 C 117.56692999999999 11.65633999999999 110.11722999999998 27.38673999999999 110.11722999999998 27.38673999999999 C 110.11722999999998 27.38673999999999 84.67008999999997 64.11944999999999 98.30644999999998 83.43762999999998 C 104.41281999999998 92.08832999999998 128.60667999999998 114.50932999999998 144.39612 128.69277 L 144.39612 128.69277 C 147.19369 131.20579 151.18747 131.28074 154.06096 128.87413 C 156.93444 126.46753000000001 157.94098 122.20471 156.49676 118.55823000000001 C 156.48230999999998 118.52176000000001 156.47795 118.54859 156.45299 118.44771000000001 C 154.98626 112.52078000000002 116.66585 84.93708000000001 113.32746 71.77245000000002 C 109.16057 55.34072000000002 119.26189000000001 50.90480000000002 123.40824 39.70232000000002 C 124.39085 37.04754000000002 132.61733 17.710910000000023 127.57491 6.597920000000023 C 122.76554 -4.0014399999999775 105.83531 -16.648089999999975 96.82424 -22.767029999999977 C 94.05773 -24.645619999999976 78.53563 -27.390209999999975 67.19769 -22.767029999999977 C 58.34938 -19.159029999999976 47.62496999999999 -2.4011199999999775 34.934 6.597920000000023 C 24.326409999999996 14.119660000000025 21.687399999999997 16.558030000000024 15.68677 16.090160000000026 C 11.94229 15.798200000000026 4.117419999999999 11.712670000000026 -0.6691700000000012 7.843250000000026 L -0.6691700000000012 7.843250000000026 C -10.044870000000001 0.26404000000002625 -12.109580000000001 -14.242799999999974 -5.290300000000001 -24.625229999999974 C 2.871789999999998 -37.05212999999998 12.099429999999998 -52.35050999999997 10.73716 -67.63281999999998 C 10.129669999999999 -74.44781999999998 4.032539999999999 -88.48302999999999 -5.56091 -97.29602999999997 C -11.755980000000001 -102.98710999999997 -18.43338 -111.85486999999998 -39.81968 -110.51696999999997 C -61.20598 -109.17906999999997 -87.94658 -73.35627999999997 -104.63207 -80.58269999999997 C -118.65407 -86.65556999999997 -120.5475 -94.73527999999997 -130.65398 -107.74304999999998 C -131.95827 -109.42176999999998 -135.83282 -118.77435999999999 -138.18940999999998 -124.31162999999998 L -138.18940999999998 -124.31162999999998 C -140.01030999999998 -128.59018999999998 -144.10881999999998 -131.10456999999997 -148.36549 -130.55451999999997 L -153.64236 -129.87381999999997 C -153.64236 -129.87381999999997 -158.19656 -121.54019999999997 -156.92752 -116.19479999999997 C -155.82562 -111.55338999999998 -145.66735 -96.09754999999997 -139.46195 -86.70060999999997 z" stroke-linecap="round" />
</g>
<g transform="matrix(0.0571928683 0.7416561239 0.8178961218 -0.0518616483 307.7421758953 442.6429346438)" id="mcYTVm1ppoWyGEyXJljGu"  >
<path style="stroke: rgb(246,170,0); stroke-width: 1; stroke-dasharray: none; stroke-linecap: butt; stroke-dashoffset: 0; stroke-linejoin: miter; stroke-miterlimit: 4; fill: rgb(246,170,0); fill-rule: nonzero; opacity: 1;" vector-effect="non-scaling-stroke"  transform=" translate(0, 0)" d="M -119.23883 -111.5022 C -117.51451999999999 -108.89332 -115.51073 -106.44737 -113.25612 -104.19930000000001 L -104.06327999999999 -95.03318000000002 L -104.06327999999999 -95.03318000000002 C -94.77122 -85.76813000000001 -79.50048999999999 -83.78475000000002 -67.49168999999999 -90.28322000000001 L -45.84218999999999 -101.99867000000002 L -35.08750999999999 -111.27817000000002 L -35.08750999999999 -111.27817000000002 C -24.272659999999988 -120.60959000000001 -7.304479999999987 -120.36657000000002 2.8958700000000093 -110.73418000000002 L 3.3834900000000094 -110.27371000000002 L 3.3834900000000094 -110.27371000000002 C 13.40041000000001 -100.81453000000002 15.50411000000001 -86.50290000000003 8.59944000000001 -74.78918000000002 L -4.508119999999989 -52.552320000000016 L -4.508119999999989 -52.552320000000016 C -9.54485999999999 -44.00753000000002 -10.692309999999988 -34.05033000000002 -7.70142999999999 -24.841850000000015 L -3.69979999999999 -12.521430000000015 L -3.69979999999999 -12.521430000000015 C -2.97543999999999 -10.291230000000015 -1.59167999999999 -8.290990000000015 0.30242000000001035 -6.736160000000015 C 6.175720000000011 -1.9149000000000154 7.044130000000011 -1.0076400000000154 20.171250000000008 5.495189999999986 C 35.41635000000001 13.047209999999986 49.94039000000001 9.807039999999986 60.42006000000001 2.183929999999986 C 76.26605 -9.336190000000014 83.85504 -9.144920000000013 96.46895 -9.979420000000014 L 96.46895 -9.979420000000014 C 97.11671000000001 -10.022270000000013 97.76502 -9.936080000000013 98.36840000000001 -9.726880000000014 C 107.49395000000001 -6.562990000000013 112.40678000000001 -6.624030000000014 113.45772000000001 13.344219999999988 C 114.53633 33.838289999999986 100.41435000000001 50.451529999999984 86.84083000000001 72.13583999999999 C 73.26731000000001 93.82014999999998 86.50199 106.77899 98.03633 123.11931999999999 C 104.2891 131.97742 114.93282 143.7181 123.94771 153.34963 L 123.94771 153.34963 C 125.97469 155.51525999999998 129.2967 156.27756 132.25607 155.25615 C 135.21543 154.23474 137.17785999999998 151.64854 137.16409 148.78805 C 137.15182 146.23805 137.57743 149.98911 135.41401 141.2469 C 133.94727999999998 135.31997 105.06433999999999 98.81201000000001 105.06433999999999 98.81201000000001 C 105.06433999999999 98.81201000000001 99.40899999999999 88.43480000000001 103.55533999999999 77.23231000000001 C 104.53794999999998 74.57753000000001 135.80366999999998 23.247240000000012 130.76124 12.134240000000005 C 125.95186999999999 1.5348800000000047 127.13424999999998 -5.992269999999994 117.73872999999999 -14.853049999999996 C 108.34320999999998 -23.713829999999994 93.17913999999999 -23.308869999999995 93.17913999999999 -23.308869999999995 C 93.17913999999999 -23.308869999999995 67.58534999999999 -27.603929999999995 54.89437999999999 -18.604879999999994 C 44.28678999999999 -11.083139999999993 41.64777999999999 -8.644769999999994 35.647149999999996 -9.112639999999994 C 31.646609999999995 -9.424559999999994 23.032739999999997 -14.212189999999993 18.003599999999995 -18.219279999999994 L 18.003599999999995 -18.219279999999994 C 8.809229999999996 -25.545119999999994 6.777809999999995 -37.856469999999995 13.173849999999995 -47.489889999999995 C 22.207849999999993 -61.09647 32.158199999999994 -76.44958 30.697539999999993 -92.83563 C 30.090049999999994 -99.65062999999999 23.99291999999999 -113.68584 14.399469999999994 -122.49884 C 8.204399999999993 -128.18992 1.526999999999994 -137.05768 -19.859300000000005 -135.71978000000001 C -41.2456 -134.38188000000002 -67.9862 -98.55909000000001 -84.67169 -105.78551000000002 C -98.69369 -111.85838000000001 -100.58712 -119.93809000000002 -110.6936 -132.94586 C -112.00493 -134.63363 -115.91217 -144.07316 -118.27729000000001 -149.63028 L -118.27729000000001 -149.63028 C -120.03777000000001 -153.76673 -124.70298000000001 -156.23552 -129.57118 -155.60691 L -133.68198999999998 -155.07663 C -133.68198999999998 -155.07663 -138.23619 -146.74301 -136.96714999999998 -141.39761 C -135.84872 -136.68657 -125.58685999999997 -121.10667999999998 -119.23887999999998 -111.50218999999998 z" stroke-linecap="round" />
</g>
</svg>