<svg xmlns="http://www.w3.org/2000/svg" xml:space="preserve" viewBox="416.27 161.48 178.23 263.8"><path style="stroke:#000;stroke-width:0;stroke-dasharray:none;stroke-linecap:butt;stroke-dashoffset:0;stroke-linejoin:miter;stroke-miterlimit:4;fill:#5566a7;fill-rule:nonzero;opacity:1" vector-effect="non-scaling-stroke" d="m-57.517-17.696.497-.113a48.185 48.185 0 0 0 36.45-37.096l15.11-72.105a6.132 6.132 0 0 1 12.058.305l10.184 64.722C20.31-39.558 37.42-21.697 59.673-17.21l22.379 4.513a8.784 8.784 0 0 1 .488 17.11l-25.908 6.782A53.862 53.862 0 0 0 17.09 54.77L6.003 123.904a9.48 9.48 0 0 1-18.754-.217L-22.246 54.2a53.129 53.129 0 0 0-37.7-43.792L-83.313 3.56a8.05 8.05 0 0 1 .5-15.578l25.297-5.68" transform="translate(505.382 293.378)"/></svg>